<svg width="21" height="21" viewBox="0 0 21 21" fill="none" xmlns="http://www.w3.org/2000/svg">
<path fill-rule="evenodd" clip-rule="evenodd" d="M10.5 21C16.299 21 21 16.299 21 10.5C21 4.70101 16.299 0 10.5 0C4.70101 0 0 4.70101 0 10.5C0 16.299 4.70101 21 10.5 21ZM14.7815 8.64161L15.2655 7.03023H13.3057C13.2211 6.57101 13.064 6.14911 12.8341 5.76416C12.7652 5.64896 12.6896 5.53849 12.6072 5.43276L14.7815 5.44462L15.2723 3.81958L6.23134 3.81973L5.72686 5.55529H8.35176C9.33254 5.55529 10.0528 5.77061 10.5132 6.20128C10.7618 6.43385 10.9433 6.71016 11.0577 7.03023H6.21077L5.72681 8.64161H11.1167C11.0616 8.84412 10.9802 9.02909 10.8725 9.19653C10.6514 9.53605 10.3293 9.79444 9.90538 9.97317C9.4822 10.1512 8.96405 10.2402 8.3517 10.2402H5.9001L5.91377 11.5128L10.859 17.1831L13.3797 17.1832V17.0727L8.86295 11.8459L8.92449 11.833C9.98812 11.772 10.8474 11.561 11.5008 11.1999C12.1549 10.8389 12.6313 10.3709 12.9306 9.79671C13.1176 9.43798 13.2462 9.05296 13.3164 8.64161H14.7815Z" fill="#2651C0"/>
</svg>
