<svg width="24" height="25" viewBox="0 0 24 25" fill="none" xmlns="http://www.w3.org/2000/svg">
<path d="M12.6685 1.01316V0.704651C12.6685 0.361088 12.4281 0.0525539 12.1196 0.0185003C11.6739 -0.084671 11.2963 0.258902 11.2963 0.670597V1.01416C11.2963 1.11733 11.2272 1.18545 11.159 1.18545C5.46044 1.56209 0.82678 5.88731 0.00236288 11.4485C-0.0316934 11.757 0.310872 11.8942 0.483166 11.6889C0.654452 11.4825 0.894861 11.3112 1.13526 11.14C2.19903 10.4188 3.64144 10.4538 4.70526 11.174C5.15101 11.4825 5.46051 11.8602 5.70092 12.2729C5.80409 12.4792 6.07856 12.4792 6.18172 12.2729C6.38806 11.8612 6.69658 11.5176 7.10827 11.2432C8.00077 10.5911 9.61445 10.5219 10.5752 11.0719C10.8496 11.2432 11.09 11.4154 11.2613 11.6208C11.3304 11.6899 11.3304 11.758 11.3304 11.8271V21.335C11.3304 22.1243 10.7815 22.8795 9.95714 22.9827C8.96149 23.154 8.06899 22.3988 8.03493 21.4041C8.03493 21.0605 7.79453 20.752 7.45097 20.6829C7.03927 20.6138 6.69571 20.9573 6.69571 21.369C6.69571 23.0849 8.13712 24.4582 9.88799 24.3552C11.4666 24.252 12.6687 22.8446 12.6687 21.266V11.7912C12.6687 11.7221 12.7027 11.654 12.7378 11.5849C12.9442 11.3785 13.1836 11.2072 13.459 11.0359C14.5228 10.4179 15.8961 10.487 16.9259 11.2423C17.3376 11.5167 17.6471 11.8944 17.8525 12.272C17.9556 12.4783 18.2301 12.4783 18.3333 12.272C18.5737 11.8262 18.9513 11.4136 19.4662 11.105C20.4278 10.5211 21.6288 10.487 22.6243 11.0019C22.9679 11.2082 23.2764 11.4476 23.5168 11.688C23.6881 11.8944 24.0317 11.7221 23.9976 11.4476C23.1382 5.88723 18.5044 1.56206 12.8058 1.15049C12.7377 1.15049 12.6685 1.08228 12.6685 1.01316Z" fill="#2651C0"/>
</svg>
