<svg width="24" height="23" viewBox="0 0 24 23" fill="none" xmlns="http://www.w3.org/2000/svg">
<path d="M6.83916 4.3825C6.82404 4.39561 6.80892 4.40771 6.79178 4.4188L3.86603 6.6741C3.8509 6.68821 3.83377 6.70132 3.81562 6.71241L0.621707 9.17439C0.453342 9.30445 0.210357 9.27319 0.0803035 9.10483C-0.0497499 8.93646 -0.0184973 8.69348 0.149868 8.56342L3.21783 6.19923V2.04857C3.21783 1.72192 3.35192 1.42349 3.56667 1.20976C3.78141 0.995021 4.07883 0.860924 4.40547 0.860924H5.77861C6.10525 0.860924 6.40369 0.995011 6.61741 1.20976C6.83216 1.42551 6.96625 1.72293 6.96625 2.04857V3.30979L10.632 0.483926C11.0504 0.161309 11.5252 0 12.0011 0C12.4759 0 12.9498 0.161309 13.3682 0.483926L23.8501 8.56355C24.0185 8.69361 24.0498 8.93658 23.9197 9.10496C23.7896 9.27332 23.5467 9.30458 23.3783 9.17452L12.8963 1.09489C12.6191 0.88116 12.3076 0.774289 12.0011 0.774289C11.6926 0.774289 11.382 0.882164 11.1038 1.09489L6.83825 4.38352L6.83916 4.3825ZM22.2613 19.9659C22.3278 19.7341 22.3793 19.4931 22.4145 19.2461C22.4508 18.993 22.469 18.7309 22.469 18.4607C22.469 17.0059 21.9034 15.6893 20.988 14.7375C20.0776 13.7908 18.8173 13.204 17.4281 13.204C16.7657 13.204 16.1346 13.3371 15.5569 13.577C15.078 13.7767 14.6344 14.0509 14.2412 14.3856C14.711 14.9038 14.9963 15.5924 14.9963 16.3475C14.9963 17.1551 14.6677 17.887 14.1374 18.4173C13.9922 18.5625 13.8329 18.6925 13.6595 18.8055C14.1333 18.991 14.5749 19.2551 14.9701 19.5787C15.7333 20.2048 16.3251 21.0598 16.6548 22.0085C18.5491 21.7665 20.1904 21.3662 21.2512 20.8067C21.7381 20.5506 22.087 20.2684 22.2604 19.9629L22.2613 19.9659ZM15.8683 22.1013C15.577 21.3502 15.093 20.6777 14.4821 20.1767C13.8046 19.6212 12.9698 19.2784 12.0685 19.2784C11.1611 19.2784 10.3213 19.6231 9.64281 20.1817C9.03185 20.6838 8.54994 21.3582 8.26159 22.1134C9.45729 22.2303 10.7286 22.2888 12.0009 22.2888C13.3186 22.2898 14.6354 22.2263 15.8683 22.1013ZM7.4702 22.0267C7.79483 21.0729 8.38765 20.215 9.15184 19.5869C9.55008 19.2592 9.99467 18.993 10.4726 18.8076C10.3002 18.6956 10.1409 18.5666 9.99668 18.4214L9.97551 18.3982C9.45832 17.8699 9.13872 17.1461 9.13872 16.3506C9.13872 15.6278 9.40084 14.9664 9.83537 14.4552C9.4331 14.0993 8.9764 13.807 8.47937 13.5953C7.89362 13.3452 7.24839 13.2061 6.5719 13.2061C5.18263 13.2061 3.92334 13.7919 3.01201 14.7395C2.09758 15.6913 1.53099 17.007 1.53099 18.4628C1.53099 18.732 1.55014 18.9941 1.58543 19.2462C1.62072 19.4942 1.67314 19.7371 1.73968 19.969C1.91208 20.2735 2.26191 20.5548 2.74684 20.8109C3.83063 21.3815 5.52032 21.7868 7.46919 22.0277L7.4702 22.0267ZM13.5919 14.8253C13.2038 14.4362 12.6644 14.1952 12.0686 14.1952C11.4738 14.1952 10.9344 14.4362 10.5442 14.8263C10.1551 15.2155 9.91311 15.7549 9.91311 16.3497C9.91311 16.9364 10.147 17.4677 10.5341 17.864C10.9334 18.2622 11.4727 18.5042 12.0676 18.5042C12.6624 18.5042 13.2018 18.2632 13.5909 17.873C13.9811 17.4849 14.222 16.9455 14.222 16.3497C14.222 15.7549 13.9811 15.2155 13.5909 14.8253L13.5919 14.8253ZM19.3265 7.84879C18.8406 7.36285 18.1701 7.0624 17.4281 7.0624C16.6952 7.0624 16.0308 7.35477 15.5388 7.8387C15.0438 8.33372 14.7433 9.00515 14.7433 9.74617C14.7433 10.4791 15.0357 11.1435 15.5196 11.6355C16.0147 12.1305 16.6861 12.4309 17.4271 12.4309C18.16 12.4309 18.8234 12.1386 19.3154 11.6546C19.8104 11.1596 20.1109 10.4882 20.1109 9.74717C20.1109 9.00616 19.8104 8.3347 19.3245 7.84876L19.3265 7.84879ZM8.47057 7.84778C7.98665 7.36285 7.31418 7.0624 6.57216 7.0624C5.83115 7.0624 5.15969 7.36285 4.67375 7.84879C4.18782 8.33473 3.88737 9.00518 3.88737 9.7472C3.88737 10.4882 4.18782 11.1597 4.67375 11.6456C5.15768 12.1315 5.83014 12.432 6.57216 12.432C7.31318 12.432 7.98463 12.1315 8.47057 11.6466C8.95651 11.1627 9.25696 10.4902 9.25696 9.7482C9.25696 9.00719 8.95651 8.33573 8.47057 7.84879V7.84778Z" fill="#2651C0"/>
</svg>
