<svg width="19" height="24" viewBox="0 0 19 24" fill="none" xmlns="http://www.w3.org/2000/svg">
<path d="M16.5467 2.36718C15.6227 2.20612 14.6987 1.99419 13.8001 1.7314C12.393 1.31604 11.0197 0.765028 9.71441 0.0953653C9.46858 -0.0317884 9.18035 -0.0317884 8.93454 0.0953653C7.62909 0.765055 6.25583 1.31604 4.8488 1.7314C3.95024 1.99418 3.02625 2.2061 2.10228 2.36718C0.881599 2.57062 0 3.62176 0 4.86788V13.0904C0 15.2435 0.92397 17.3117 2.52612 18.7613L7.62068 23.3473C8.11234 23.7796 8.71419 24 9.32453 24C9.93487 24 10.5367 23.7796 11.0284 23.3473L16.1229 18.7613C17.7251 17.3118 18.6491 15.2434 18.6491 13.0904V4.86788C18.6491 3.62176 17.7673 2.57062 16.5467 2.36718ZM14.1647 9.0809L9.07852 14.167C8.90898 14.3281 8.69707 14.4129 8.47665 14.4129C8.25622 14.4129 8.04431 14.3281 7.87477 14.167L5.3317 11.624C5.00108 11.2934 5.00108 10.7508 5.3317 10.4202C5.66231 10.0897 6.20483 10.0896 6.53542 10.4202L8.47662 12.3699L12.9608 7.87731C13.2915 7.5467 13.834 7.5467 14.1646 7.87731C14.4951 8.20792 14.4953 8.75031 14.1647 9.0809Z" fill="#2651C0"/>
</svg>
