<svg width="33" height="20" viewBox="0 0 33 20" fill="none" xmlns="http://www.w3.org/2000/svg">
<path fill-rule="evenodd" clip-rule="evenodd" d="M0.00692376 19.4031L0.315069 17.5343C0.765577 14.8144 3.09846 12.8205 5.83303 12.8205C8.19846 12.8205 9.12322 12.8205 11.4886 12.8205C14.2232 12.8205 15.5561 14.8144 16.0066 17.5343L16.3148 19.4031C16.3392 19.5518 16.2985 19.7036 16.2019 19.8184C16.1052 19.9333 15.9629 20 15.8134 20H0.508292C0.3588 20 0.216439 19.9333 0.119829 19.8184C0.0232183 19.7036 -0.017483 19.5518 0.00692376 19.4031ZM14.0124 12.8205C15.5632 13.8072 16.69 15.4308 17.0093 17.3651L17.3185 19.2338C17.3612 19.4943 17.3368 19.7569 17.2514 20H24.9829C25.2839 20 25.5686 19.883 25.7619 19.68C25.9551 19.4769 26.0364 19.2082 25.9846 18.9466C25.9846 18.9466 25.8361 18.2051 25.651 17.2718C25.1375 14.6974 23.6032 12.8205 20.6409 12.8205H14.0124ZM18.8473 2.05128C16.6019 2.05128 14.7795 3.88923 14.7795 6.15384C14.7795 8.41845 16.6019 10.2564 18.8473 10.2564C21.0927 10.2564 22.9151 8.41845 22.9151 6.15384C22.9151 3.88923 21.0927 2.05128 18.8473 2.05128ZM7.66084 0C4.85406 0 2.57609 2.29743 2.57609 5.1282C2.57609 7.95897 4.85406 10.2564 7.66084 10.2564C10.4676 10.2564 12.7456 7.95897 12.7456 5.1282C12.7456 2.29743 10.4676 0 7.66084 0Z" fill="#2651C0"/>
<path fill-rule="evenodd" clip-rule="evenodd" d="M24.1585 13.28C25.2143 13.947 25.9814 15.0445 26.1988 16.3522L26.5 19.2879C26.5291 19.464 26.4217 19.8357 26.3635 20H32.3077C32.5126 20 32.7064 19.921 32.838 19.7837C32.9695 19.6464 33.0249 19.4647 32.9896 19.2879C32.9896 19.2879 32.8885 16.92 32.7625 16.2891C32.4129 14.5488 30.6877 13.28 28.671 13.28H24.1585ZM26.7692 6C25.2406 6 24 7.24245 24 8.77333C24 10.3042 25.2406 11.5467 26.7692 11.5467C28.2978 11.5467 29.5384 10.3042 29.5384 8.77333C29.5384 7.24245 28.2978 6 26.7692 6Z" fill="#2651C0"/>
</svg>
