<svg width="19" height="24" viewBox="0 0 19 24" fill="none" xmlns="http://www.w3.org/2000/svg">
<path fill-rule="evenodd" clip-rule="evenodd" d="M0 9.48151C0 15.9018 3.80814 21.4397 9.28773 23.9584C9.41075 24.0139 9.55135 24.0139 9.67437 23.9584C15.154 21.4397 18.9621 15.9018 18.9621 9.48151V4.32752C18.9621 4.14252 18.852 3.97603 18.6818 3.90295L9.66327 0.0374617C9.54672 -0.0124872 9.41537 -0.0124872 9.29883 0.0374617L0.280269 3.90295C0.110073 3.97603 0 4.14252 0 4.32752V9.48151ZM1.61872 9.88018C1.61872 15.3135 4.76272 19.9995 9.28403 22.1306C9.4089 22.1898 9.5532 22.1898 9.67807 22.1306C14.1994 19.9995 17.3434 15.3135 17.3434 9.88018V5.54202C17.3434 5.35795 17.2352 5.19238 17.0668 5.11838L9.66697 1.8643C9.54857 1.8125 9.41352 1.8125 9.29513 1.8643L1.89528 5.11838C1.72694 5.19238 1.61872 5.35795 1.61872 5.54202V9.88018ZM16.4184 9.88018C16.4184 14.8621 13.5861 19.1716 9.48197 21.1992C5.37599 19.1716 2.5437 14.8621 2.5437 9.88018V5.84356L9.48105 2.79298L16.4184 5.84356V9.88018ZM5.9208 11.3823L9.14713 14.6346C9.2387 14.7261 9.35988 14.7715 9.48105 14.7696C9.60222 14.7715 9.72339 14.7261 9.81497 14.6346L13.0413 11.3823C13.0496 11.3731 13.0579 11.3638 13.0653 11.3537C13.4381 10.8736 13.6435 10.2807 13.6435 9.66558C13.6435 8.93577 13.353 8.23556 12.8369 7.71942L12.836 7.7185C11.9267 6.80832 10.5374 6.66957 9.48105 7.30133C8.42472 6.66957 7.0354 6.80832 6.12614 7.7185L6.12522 7.71942C5.60908 8.23556 5.31864 8.93577 5.31864 9.66558C5.31864 10.2807 5.52398 10.8736 5.89675 11.3537L5.9208 11.3823ZM9.45422 8.31696C9.35895 8.31326 9.26645 8.27904 9.18968 8.21984C8.47374 7.663 7.43777 7.7148 6.78011 8.37246L6.77918 8.37338C6.43601 8.71655 6.24362 9.18089 6.24362 9.66558C6.24362 10.067 6.37496 10.4546 6.61268 10.7682L9.48105 13.6606L12.342 10.7765C12.5853 10.4601 12.7185 10.0698 12.7185 9.66558C12.7185 9.18089 12.5261 8.71655 12.1829 8.37338L12.182 8.37246C11.5243 7.7148 10.4884 7.663 9.77242 8.21984C9.69102 8.28366 9.59112 8.31789 9.48845 8.31789L9.45422 8.31696Z" fill="#2651C0"/>
</svg>
