<svg width="24" height="24" viewBox="0 0 24 24" fill="none" xmlns="http://www.w3.org/2000/svg">
<path d="M23.8547 9.27693L18.687 6.09305C18.4807 5.96555 18.2182 6.11555 18.2182 6.35181V7.86687H18.177C16.5681 7.86687 15.1281 8.57565 14.1381 9.69319V6.55057H16.1331C16.3994 6.55057 16.5569 6.24681 16.3994 6.0293L12.1805 0.137818C12.0492 -0.0459393 11.7755 -0.0459393 11.6442 0.137818L7.42529 6.0293C7.26778 6.24681 7.42529 6.55057 7.6953 6.55057H9.68663V9.50193C8.70784 8.49314 7.33904 7.86687 5.82398 7.86687H5.78273V6.35181C5.78273 6.11555 5.52022 5.96555 5.31396 6.09305L0.146256 9.27693C-0.0487519 9.40068 -0.0487519 9.68194 0.146256 9.80195L5.31396 12.9896C5.52022 13.1133 5.78273 12.9671 5.78273 12.7308V11.7483C6.514 12.5958 6.98277 13.6796 7.06903 14.8646V24H16.9057V14.8646H16.9319C17.0182 13.6796 17.4869 12.5958 18.2182 11.7483V12.7308C18.2182 12.9671 18.4807 13.1133 18.687 12.9896L23.8547 9.80195C24.0497 9.68194 24.0497 9.40068 23.8547 9.27693ZM12.0155 10.9682C12.938 10.9682 13.6843 11.7145 13.6843 12.6333C13.6843 13.5521 12.938 14.3021 12.0155 14.3021C11.0967 14.3021 10.3504 13.5521 10.3504 12.6333C10.3504 11.7145 11.0967 10.9682 12.0155 10.9682ZM14.6181 19.8186C14.6181 20.0436 14.4381 20.2274 14.2093 20.2274C13.9843 20.2274 13.8005 20.0436 13.8005 19.8186V17.2197C13.8005 17.0847 13.6918 16.9797 13.5605 16.9797C13.4255 16.9797 13.3168 17.0847 13.3168 17.2197V22.8412C13.3168 23.13 13.0843 23.3625 12.7992 23.3625H12.7955C12.5142 23.3625 12.278 23.13 12.278 22.8412V20.3361C12.278 20.1786 12.1542 20.0548 12.0005 20.0548C11.843 20.0548 11.7192 20.1786 11.7192 20.3361V22.8412C11.7192 23.13 11.4867 23.3625 11.2017 23.3625C10.9167 23.3625 10.6842 23.13 10.6842 22.8412V17.2197C10.6842 17.0885 10.5717 16.9797 10.4404 16.9797C10.3054 16.9797 10.1966 17.0885 10.1966 17.2197V19.8186C10.1966 20.0436 10.0166 20.2274 9.79163 20.2274C9.56287 20.2274 9.37912 20.0436 9.37912 19.8186V15.1647C9.37912 14.8309 9.51412 14.5384 9.72788 14.3209C9.94164 14.1034 10.3017 14.0809 10.5379 14.2796C10.9392 14.6134 11.4567 14.8159 12.0155 14.8159C12.5667 14.8159 13.0805 14.6171 13.478 14.2946C13.718 14.0921 14.0855 14.1146 14.2956 14.3396C14.4981 14.5571 14.6181 14.8459 14.6181 15.1647V19.8186Z" fill="#2651C0"/>
</svg>
