<svg width="24" height="24" viewBox="0 0 24 24" fill="none" xmlns="http://www.w3.org/2000/svg">
<path d="M23.2427 12.3787C23.2427 18.7855 18.0282 24 11.6213 24C5.21445 24 0 18.7855 0 12.3787C0 5.97179 5.21445 0.757305 11.6213 0.757305C12.6824 0.757305 13.7385 0.903855 14.7541 1.18678C14.6732 0.752248 14.8905 0.297487 15.3048 0.100422C15.8101 -0.142101 16.4164 0.0701376 16.6539 0.570356L17.624 2.59146C17.7402 2.83398 17.7554 3.11185 17.6695 3.36449C17.5785 3.61712 17.3916 3.82437 17.1541 3.94057L15.128 4.91066C14.9915 4.98141 14.84 5.01169 14.6934 5.01169C14.3145 5.01169 13.9557 4.79951 13.7839 4.43573C13.5515 3.96074 13.7334 3.38472 14.1882 3.12702C13.3544 2.89461 12.4904 2.77841 11.6213 2.77841C6.32607 2.77841 2.0211 7.08337 2.0211 12.3787C2.0211 17.6739 6.32607 21.9789 11.6213 21.9789C16.9166 21.9789 21.2216 17.6739 21.2216 12.3787C21.2216 11.8228 21.6713 11.3681 22.2321 11.3681C22.7879 11.3681 23.2427 11.8228 23.2427 12.3787Z" fill="#2651C0"/>
<path d="M18.9248 12.5266C18.9248 15.5026 16.929 18.0088 14.2004 18.7768C16.4944 17.6248 18.0405 15.25 18.0405 12.5266C18.0405 9.80308 16.4994 7.42831 14.2105 6.27626C16.934 7.05441 18.9248 9.5555 18.9248 12.5266Z" fill="#2651C0"/>
<path fill-rule="evenodd" clip-rule="evenodd" d="M10.5 19C14.0899 19 17 16.0899 17 12.5C17 8.91015 14.0899 6 10.5 6C6.91015 6 4 8.91015 4 12.5C4 16.0899 6.91015 19 10.5 19ZM13.1504 11.3496L13.45 10.352H12.2369C12.1845 10.0678 12.0872 9.80659 11.9449 9.56829C11.9023 9.49698 11.8555 9.42859 11.8045 9.36314L13.1504 9.37048L13.4543 8.3645L7.8575 8.36459L7.5452 9.43899H9.17014C9.77728 9.43899 10.2231 9.57228 10.5082 9.83889C10.6621 9.98286 10.7744 10.1539 10.8452 10.352H7.84476L7.54517 11.3496H10.8818C10.8476 11.4749 10.7973 11.5894 10.7306 11.6931C10.5937 11.9033 10.3943 12.0632 10.1319 12.1739C9.86993 12.2841 9.54917 12.3392 9.1701 12.3392H7.65244L7.66091 13.127L10.7222 16.6372L12.2827 16.6372V16.5688L9.48659 13.3332L9.52468 13.3252C10.1831 13.2874 10.715 13.1568 11.1195 12.9333C11.5245 12.7098 11.8194 12.4201 12.0047 12.0646C12.1204 11.8426 12.2 11.6042 12.2435 11.3496H13.1504Z" fill="#2651C0"/>
</svg>
