<svg width="24" height="21" viewBox="0 0 24 21" fill="none" xmlns="http://www.w3.org/2000/svg">
<path fill-rule="evenodd" clip-rule="evenodd" d="M1.44165 5.63345C-1.00659 11.5807 -0.813228 17.4831 5.79419 20.3639H18.2063C24.8137 17.4831 25.0061 11.5807 22.5588 5.63345H23.4934V2.53189H15.5999C15.7473 1.34634 14.9885 0.387357 14.009 0.0924351C13.4876 -0.0638149 12.9036 -0.0306118 12.3596 0.258451C10.7922 -0.571627 8.89087 0.713529 9.11646 2.53189H0.507085V5.63345H1.44165ZM22.4983 3.53775V4.62759H1.5022V3.53775H22.4983ZM16.5891 10.9694L16.9944 9.64322H15.3518C15.3469 9.61978 15.343 9.59634 15.3381 9.5729C15.2649 9.22134 15.1379 8.89908 14.9573 8.6022C14.8997 8.5065 14.8362 8.41665 14.7669 8.32876L16.5891 8.33853L17.0002 7.00064H11.2004H10.9338H9.4231L9.00025 8.43033H11.2004C11.6565 8.43033 12.0452 8.48501 12.3674 8.59244C12.6252 8.68033 12.8401 8.80337 13.012 8.96158C13.22 9.15298 13.3723 9.37954 13.468 9.64322H9.40552L9.00025 10.9694H13.5178C13.4719 11.1354 13.4036 11.2877 13.3127 11.4264C13.1887 11.612 13.0276 11.7702 12.8284 11.8971C12.7288 11.9596 12.6204 12.0163 12.5022 12.0651C12.1477 12.2116 11.7131 12.2858 11.2004 12.2858H9.14576L9.1565 13.3327L13.301 18.0006H15.4143V17.9088L11.6282 13.6081L11.6799 13.5963C12.5715 13.5456 13.2922 13.3737 13.8391 13.0749C14.3879 12.778 14.7864 12.3932 15.0374 11.9206C15.1946 11.6256 15.303 11.3073 15.3616 10.9694H16.5891Z" fill="#2651C0"/>
</svg>
