<svg width="14" height="10" viewBox="0 0 14 10" fill="none" xmlns="http://www.w3.org/2000/svg">
<path d="M7.07163 6.31388L12.0216 1.36388C12.1139 1.26837 12.2242 1.19219 12.3462 1.13978C12.4682 1.08737 12.5995 1.05979 12.7322 1.05863C12.865 1.05748 12.9967 1.08278 13.1196 1.13306C13.2425 1.18334 13.3541 1.25759 13.448 1.35149C13.5419 1.44538 13.6162 1.55703 13.6665 1.67993C13.7167 1.80282 13.742 1.9345 13.7409 2.06728C13.7397 2.20006 13.7121 2.33128 13.6597 2.45329C13.6073 2.57529 13.5311 2.68564 13.4356 2.77788L7.77863 8.43488C7.5911 8.62235 7.3368 8.72767 7.07163 8.72767C6.80647 8.72767 6.55216 8.62235 6.36463 8.43488L0.707632 2.77788C0.612122 2.68564 0.53594 2.57529 0.483531 2.45329C0.431122 2.33128 0.403535 2.20006 0.402382 2.06728C0.401228 1.9345 0.426529 1.80282 0.47681 1.67993C0.527091 1.55703 0.601344 1.44538 0.695237 1.35149C0.78913 1.25759 0.900782 1.18334 1.02368 1.13306C1.14657 1.08278 1.27825 1.05748 1.41103 1.05863C1.54381 1.05979 1.67503 1.08737 1.79704 1.13978C1.91904 1.19219 2.02939 1.26837 2.12163 1.36388L7.07163 6.31388Z" fill="white"/>
</svg>
