<svg width="48" height="48" viewBox="0 0 48 48" fill="none" xmlns="http://www.w3.org/2000/svg">
<rect width="48" height="48" rx="10" fill="#EFF7CA"/>
<path d="M27.3908 16.3901C27.5165 16.5159 27.6735 16.6059 27.8456 16.6509C28.0177 16.6958 28.1987 16.6941 28.3698 16.6458C28.541 16.5975 28.6962 16.5044 28.8194 16.3761C28.9427 16.2479 29.0294 16.0891 29.0708 15.9161C29.1746 15.484 29.3918 15.0874 29.6998 14.7671C30.0079 14.4468 30.3957 14.2144 30.8235 14.0938C31.2512 13.9733 31.7033 13.9689 32.1333 14.0812C32.5633 14.1934 32.9556 14.4183 33.2697 14.7326C33.5839 15.0469 33.8087 15.4392 33.9208 15.8692C34.0329 16.2993 34.0284 16.7514 33.9077 17.1791C33.787 17.6068 33.5545 17.9946 33.2341 18.3025C32.9137 18.6104 32.517 18.8274 32.0848 18.9311C31.9119 18.9725 31.7531 19.0593 31.6248 19.1825C31.4965 19.3057 31.4035 19.4609 31.3552 19.6321C31.3069 19.8033 31.3051 19.9842 31.35 20.1563C31.395 20.3284 31.485 20.4854 31.6108 20.6111L33.2938 22.2931C33.518 22.5173 33.6958 22.7834 33.8172 23.0763C33.9385 23.3691 34.0009 23.6831 34.0009 24.0001C34.0009 24.3171 33.9385 24.631 33.8172 24.9239C33.6958 25.2168 33.518 25.4829 33.2938 25.7071L31.6108 27.3901C31.4851 27.5159 31.3281 27.6059 31.1561 27.6509C30.984 27.6958 30.803 27.6941 30.6318 27.6458C30.4607 27.5975 30.3055 27.5044 30.1822 27.3761C30.059 27.2479 29.9722 27.0891 29.9308 26.9161C29.827 26.484 29.6099 26.0874 29.3019 25.7671C28.9938 25.4468 28.606 25.2144 28.1782 25.0938C27.7505 24.9733 27.2984 24.9689 26.8684 25.0812C26.4384 25.1934 26.0461 25.4183 25.7319 25.7326C25.4178 26.0469 25.193 26.4392 25.0809 26.8692C24.9688 27.2993 24.9733 27.7514 25.094 28.1791C25.2147 28.6068 25.4472 28.9946 25.7676 29.3025C26.088 29.6104 26.4847 29.8274 26.9168 29.9311C27.0898 29.9725 27.2486 30.0593 27.3769 30.1825C27.5051 30.3057 27.5982 30.4609 27.6465 30.6321C27.6948 30.8033 27.6966 30.9842 27.6516 31.1563C27.6067 31.3284 27.5167 31.4854 27.3908 31.6111L25.7078 33.2931C25.4837 33.5173 25.2176 33.6951 24.9247 33.8164C24.6318 33.9377 24.3179 34.0002 24.0008 34.0002C23.6838 34.0002 23.3699 33.9377 23.077 33.8164C22.7841 33.6951 22.518 33.5173 22.2938 33.2931L20.6108 31.6101C20.4851 31.4843 20.3281 31.3942 20.1561 31.3493C19.984 31.3043 19.803 31.3061 19.6318 31.3544C19.4607 31.4027 19.3055 31.4958 19.1822 31.624C19.059 31.7523 18.9722 31.9111 18.9308 32.0841C18.827 32.5162 18.6099 32.9128 18.3019 33.2331C17.9938 33.5534 17.606 33.7858 17.1782 33.9064C16.7505 34.0269 16.2984 34.0313 15.8684 33.919C15.4384 33.8067 15.0461 33.5819 14.7319 33.2676C14.4178 32.9533 14.193 32.561 14.0809 32.1309C13.9688 31.7009 13.9733 31.2488 14.094 30.8211C14.2147 30.3934 14.4472 30.0056 14.7676 29.6977C15.088 29.3897 15.4847 29.1728 15.9168 29.0691C16.0898 29.0277 16.2486 28.9409 16.3769 28.8177C16.5051 28.6945 16.5982 28.5393 16.6465 28.3681C16.6948 28.1969 16.6966 28.016 16.6516 27.8439C16.6067 27.6718 16.5167 27.5148 16.3908 27.3891L14.7078 25.7071C14.4837 25.4829 14.3058 25.2168 14.1845 24.9239C14.0632 24.631 14.0008 24.3171 14.0008 24.0001C14.0008 23.6831 14.0632 23.3691 14.1845 23.0763C14.3058 22.7834 14.4837 22.5173 14.7078 22.2931L16.3908 20.6101C16.5165 20.4843 16.6735 20.3942 16.8456 20.3493C17.0177 20.3043 17.1987 20.3061 17.3698 20.3544C17.541 20.4027 17.6962 20.4958 17.8194 20.624C17.9427 20.7523 18.0294 20.9111 18.0708 21.0841C18.1746 21.5162 18.3918 21.9128 18.6998 22.2331C19.0079 22.5534 19.3957 22.7858 19.8235 22.9064C20.2512 23.0269 20.7033 23.0313 21.1333 22.919C21.5633 22.8067 21.9556 22.5819 22.2697 22.2676C22.5839 21.9533 22.8087 21.561 22.9208 21.1309C23.0329 20.7009 23.0284 20.2488 22.9077 19.8211C22.787 19.3934 22.5545 19.0056 22.2341 18.6977C21.9137 18.3897 21.517 18.1727 21.0848 18.0691C20.9119 18.0277 20.7531 17.9409 20.6248 17.8177C20.4965 17.6945 20.4035 17.5393 20.3552 17.3681C20.3069 17.1969 20.3051 17.016 20.35 16.8439C20.395 16.6718 20.485 16.5148 20.6108 16.3891L22.2938 14.7071C22.518 14.4829 22.7841 14.3051 23.077 14.1838C23.3699 14.0624 23.6838 14 24.0008 14C24.3179 14 24.6318 14.0624 24.9247 14.1838C25.2176 14.3051 25.4837 14.4829 25.7078 14.7071L27.3908 16.3901Z" stroke="#66531D" stroke-width="2" stroke-linecap="round" stroke-linejoin="round"/>
</svg>
