<svg width="48" height="48" viewBox="0 0 48 48" fill="none" xmlns="http://www.w3.org/2000/svg">
<rect width="48" height="48" rx="10" fill="#EFF7CA"/>
<path d="M19.9992 31C19.1412 31.0019 18.3053 30.7279 17.615 30.2184C16.9246 29.7089 16.4164 28.9909 16.1653 28.1705C15.9142 27.35 15.9336 26.4706 16.2207 25.662C16.5077 24.8534 17.047 24.1586 17.7592 23.68C17.3201 23.1314 17.0564 22.4633 17.0022 21.7627C16.9481 21.0621 17.106 20.3615 17.4556 19.7519C17.8052 19.1423 18.3301 18.6521 18.9621 18.345C19.5941 18.0379 20.3039 17.9281 20.9992 18.03V18C20.9992 17.2044 21.3153 16.4413 21.8779 15.8787C22.4405 15.3161 23.2035 15 23.9992 15C24.7948 15 25.5579 15.3161 26.1205 15.8787C26.6831 16.4413 26.9992 17.2044 26.9992 18V18.04C27.6945 17.9381 28.4043 18.0479 29.0363 18.355C29.6683 18.6621 30.1932 19.1523 30.5428 19.7619C30.8923 20.3715 31.0503 21.0721 30.9962 21.7727C30.942 22.4733 30.6783 23.1414 30.2392 23.69C30.9469 24.1702 31.482 24.8645 31.7662 25.6712C32.0503 26.4778 32.0684 27.3543 31.8178 28.1719C31.5672 28.9896 31.0612 29.7055 30.374 30.2144C29.6867 30.7234 28.8544 30.9987 27.9992 31H19.9992Z" stroke="#66531D" stroke-width="2" stroke-linecap="round" stroke-linejoin="round"/>
<path d="M24 31V34" stroke="#66531D" stroke-width="2" stroke-linecap="round" stroke-linejoin="round"/>
</svg>
