<svg version="1.2" xmlns="http://www.w3.org/2000/svg" viewBox="0 0 173 44" width="173" height="44">
	<title>kotak-life-white-logo</title>
	<style>
		.s0 { fill: #ffffff } 
	</style>
	<path class="s0" d="m72.2 33.4c4.8 0 8.5-3.1 8.5-8.5 0-5.4-3.7-8.5-8.5-8.5-4.9 0-8.6 3.1-8.6 8.5 0 5.4 3.7 8.5 8.6 8.5zm0-4c-2.4 0-3.4-2-3.4-4.5 0-2.5 1-4.7 3.4-4.7 2.3 0 3.3 2.2 3.3 4.7 0 2.5-1 4.5-3.3 4.5z"/>
	<path fill-rule="evenodd" class="s0" d="m109.6 33h5.1v-8h0.1l4.1 8h6.2l-5.6-8.8 5.1-7.6h-5.6l-4.2 6.9h-0.1v-12.5l-5.1 2.1z"/>
	<path fill-rule="evenodd" class="s0" d="m50 33h5.1v-8h0.1l4.1 8h6.2l-5.6-8.8 5.1-7.6h-5.6l-4.2 6.9h-0.1v-12.5l-5.1 1.9z"/>
	<path class="s0" d="m107.9 33.1c-0.3-1.3-0.4-2.6-0.4-3.9v-6.1c0-5.1-3.2-6.9-7-6.9-2.3 0-4.1 0.3-6 1.1v3.9q2.3-1.3 4.9-1.3c1.8 0 3.3 0.7 3.3 2.9-0.6-0.1-1.5-0.1-2.4-0.1-2.7 0-7.6 0.5-7.6 5.6 0 3.6 2.6 5.3 5.5 5.3 2.1 0 3.5-1 4.7-3.1 0 0.9 0.2 1.8 0.2 2.6h4.7zm-10.4-5.2c0-1.6 1.3-2.2 3.2-2.2 0.7 0 1.5 0.2 2.1 0.2 0 1.9-1.2 3.8-3.1 3.8-1.2 0-2.2-0.7-2.2-1.8z"/>
	<path class="s0" d="m80.3 20.6h2.9v6.8c0 3.8 1.1 6 5.6 6 1.3 0 2.3-0.1 3.3-0.3l-0.3-3.7c-0.5 0.2-1 0.3-1.6 0.3-1.5 0-2-1.1-2-3v-6.1h3.6v-4h-3.6v-5.6l-5 1.9v3.7h-3v4z"/>
	<g>
		<path class="s0" d="m8.2 22.3c0 2.6 2.3 4.5 4.7 4.5 3.3 0 5.5-3.2 7.2-5.9v-2.3c-1.1-1-3.7-1.8-5.4-1.8-3.6 0-6.7 1.6-6.5 5.5z"/>
		<path class="s0" d="m22.9 0.8c-12.3 0-22.2 9.5-22.2 21.2 0 11.7 9.9 21.2 22.2 21.2 12.1 0 22-9.5 22-21.2 0-11.7-9.9-21.2-22-21.2zm9 32.2c-2.9 0-5.1-2.1-6.6-4.7v8.4l-5.2 1.9v-7.9c-1.4 1.3-3 2.3-5.4 2.3-5.7 0-8.4-6.2-8.4-11.3 0-5.1 2.2-10.7 7.8-10.7 2.3 0 4.7 1.6 6 3.3v-6.6l5.2-1.9v7.9c1.5-1.6 3.4-2.7 5.8-2.7 4.9 0 7.5 4.3 8.2 8.7h-2.1c-0.9-1.4-2.6-2.2-4.2-2.2-3.6 0-5.8 3.5-7.7 6.4v1.3c1.9 1.1 3.7 2.2 5.8 2.3 2.8 0 5.2-1.1 6.2-3.3h2.1c-0.5 4.4-2.7 8.8-7.5 8.8z"/>
	</g>
	<path class="s0" d="m171.3 30c-0.6 0.5-2.6 1.5-4.4 1.5-2.3 0-4.4-2.1-4.4-5.1h9.8c0-4.9-1.5-8.7-6.1-8.7-3.8 0-6.4 3.2-6.4 7.7 0 5.1 2.2 8.4 7.1 8.4 2.3 0 3.4-0.7 4.4-1.1zm-8.8-5.6c0.1-2.1 1.2-4.3 3.7-4.3 2.1 0 3.3 2 3.3 4.3zm-10.6 9.1h2.6v-13.1h3.6v-2.3h-3.6v-1.7c0-2 0.3-3.6 2.5-3.6 0.4 0 0.8 0 1.1 0.2l0.1-2.2c-0.5-0.2-1-0.3-1.6-0.3-3.8 0-4.7 2.5-4.7 6.2v1.5h-3.2v2.2h3.2zm-6-21.9h-3v3.2h3zm-2.8 21.9h2.5v-15.3h-2.5zm-7.5 0h2.5v-22.6h-2.5z"/>
</svg>