<svg version="1.2" xmlns="http://www.w3.org/2000/svg" viewBox="0 0 144 32" width="144" height="32">
	<title>Kotak Life Logo color</title>
	<style>
		.s0 { fill: #ed1c24 } 
		.s1 { fill: #003975 } 
		.s2 { fill: #ffffff } 
	</style>
	<path class="s0" d="m60 24.6c4.1 0 7.2-2.4 7.2-6.4 0-4.1-3.1-6.5-7.2-6.5-4 0-7.1 2.4-7.1 6.5 0 4 3.1 6.4 7.1 6.4zm0-3c-1.9 0-2.7-1.6-2.7-3.4 0-1.8 0.8-3.5 2.7-3.5 2 0 2.8 1.6 2.8 3.5 0 1.8-0.8 3.4-2.8 3.4z"/>
	<path class="s0" d="m66.8 15h2.4v5c0 2.9 1 4.6 4.7 4.6 1.1 0 1.9-0.2 2.7-0.3l-0.1-2.7c-0.5 0-0.9 0.1-1.3 0.1-1.4 0-1.7-0.7-1.7-2.2v-4.5h2.9v-3h-2.9v-4.2l-4.2 1.4v2.8h-2.5c0 0 0 3 0 3z"/>
	<path fill-rule="evenodd" class="s0" d="m91.3 24.3h4.2v-6.1h0.1l3.4 6.1h5.1l-4.6-6.6 4.3-5.7h-4.7l-3.5 5.2h-0.1v-9.4l-4.2 1.4v15.1z"/>
	<path fill-rule="evenodd" class="s0" d="m41.6 24.3h4.3v-6.1l3.4 6.1h5.1l-4.6-6.6 4.3-5.7h-4.7l-3.5 5.2v-9.4l-4.3 1.4v15.1z"/>
	<path class="s0" d="m89.8 24.3c-0.2-0.9-0.3-1.9-0.3-2.9v-4.6c0-3.8-2.7-5.2-5.9-5.2-1.8 0-3.4 0.3-4.9 0.9v2.9c1.2-0.6 2.6-0.9 4-0.9 1.5 0 2.8 0.4 2.8 2.1-0.5-0.1-1.3-0.1-2-0.1-2.3 0-6.4 0.4-6.4 4.2 0 2.7 2.2 3.9 4.7 3.9 1.7 0 2.9-0.7 3.9-2.2h0.1c0 0.6 0 1.3 0 2h4zm-8.7-4c0-1.2 1.2-1.6 2.6-1.6 0.7 0 1.3 0 1.8 0 0 1.5-1 3-2.6 3-1 0-1.8-0.5-1.8-1.4"/>
	<path class="s1" d="m0.5 16c0-8.8 8.2-15.9 18.4-15.9 10.2 0 18.4 7.1 18.4 15.9 0 8.8-8.2 15.8-18.4 15.8-10.2 0-18.4-7.1-18.4-15.8z"/>
	<path fill-rule="evenodd" class="s0" d="m16.7 5.3l4.2-1.4 0.1 23.1-4.4 1.5 0.1-23.2z"/>
	<path class="s2" d="m19.2 19.7c-1.9 2.2-3.7 4.5-7 4.5-4.8 0-7-4.6-7-8.4 0-3.9 1.7-8.1 6.4-8.1 2 0 3.9 1.3 5.1 2.6v3.1c-1-0.7-3.2-1.3-4.6-1.3-2.9-0.1-5.5 1.2-5.5 4.1 0.1 2 2 3.4 4 3.4 3 0 4.9-2.8 6.4-4.9 0.4-0.5 1.6-2.1 1.8-2.4 1.7-2.4 3.7-4.5 7-4.5 4 0 6.2 3.2 6.8 6.5h-1.7c-0.8-1.1-2.1-1.8-3.5-1.8-3.1 0-5 2.9-6.5 5 0 0-1.3 1.7-1.7 2.2zm13.6-2.1c-0.4 3.3-2.3 6.7-6.4 6.7-2.3 0-4.2-1.6-5.5-3.6v-2.3c1.6 0.8 3.1 1.6 5 1.7 2.2 0 4.2-0.9 5.1-2.5z"/>
	<path class="s1" d="m142.7 22c-0.6 0.4-2.2 1.1-3.6 1.1-2 0-3.8-1.5-3.8-3.8h8.2c0-3.7-1.2-6.5-5-6.5-3.3 0-5.4 2.4-5.4 5.8 0 3.8 1.9 6.2 5.9 6.2 1.9 0 2.9-0.4 3.7-0.7 0 0 0-2.1 0-2.1zm-7.4-4.3c0.2-1.5 1-3.2 3.1-3.2 1.8 0 2.9 1.4 2.9 3.2zm-8.9 6.9h2.1v-9.8h3.1v-1.7h-3.1v-1.3c0-1.5 0.3-2.7 2.1-2.7 0.3 0 0.8 0.1 1 0.1l0.1-1.7c-0.4 0-0.9-0.1-1.4-0.1-3.2 0-3.9 1.8-3.9 4.6v1.1h-2.7v1.7h2.7zm-5.1-16.5h-2.4v2.4h2.4zm-2.3 16.5h2.2v-11.5h-2.2zm-6.2 0h2.1v-16.9h-2.1z"/>
</svg>