<svg version="1.2" xmlns="http://www.w3.org/2000/svg" viewBox="0 0 140 32" width="140" height="32">
	<title>KLI Logo White  - SVG</title>
	<style>
		.s0 { fill: #ffffff } 
	</style>
	<path class="s0" d="m58.4 24.3c3.9 0 6.9-2.3 6.9-6.2 0-3.9-3-6.2-6.9-6.2-3.9 0-6.9 2.3-6.9 6.2 0 3.9 3 6.2 6.9 6.2zm0-2.9c-1.9 0-2.7-1.5-2.7-3.3 0-1.8 0.8-3.4 2.7-3.4 1.9 0 2.7 1.6 2.7 3.4 0 1.8-0.8 3.3-2.7 3.3z"/>
	<path fill-rule="evenodd" class="s0" d="m88.7 24h4.1v-5.8h0.1l3.3 5.8h5l-4.5-6.4 4.1-5.5h-4.5l-3.4 5h-0.1v-9.1l-4.1 1.5v14.5z"/>
	<path fill-rule="evenodd" class="s0" d="m40.5 24h4.1v-5.8h0.1l3.3 5.8h5l-4.5-6.4 4.1-5.5h-4.5l-3.4 5h-0.1v-9.1l-4.1 1.4v14.6z"/>
	<path class="s0" d="m87.3 24.1c-0.2-1-0.3-1.9-0.3-2.9v-4.4c0-3.7-2.6-5-5.7-5-1.8 0-3.3 0.2-4.8 0.8v2.8c1.2-0.6 2.5-0.9 3.9-0.9 1.5 0 2.7 0.5 2.7 2.1-0.5-0.1-1.2-0.1-1.9-0.1-2.2 0-6.2 0.4-6.2 4.1 0 2.6 2.1 3.8 4.5 3.8 1.7 0 2.8-0.7 3.8-2.2 0 0.6 0.1 1.3 0.1 1.9h3.8zm-8.4-3.8c0-1.2 1.1-1.6 2.6-1.6 0.6 0 1.2 0.1 1.7 0.1 0 1.4-1 2.8-2.5 2.8-1 0-1.8-0.5-1.8-1.3z"/>
	<path class="s0" d="m65 15h2.3v4.9c0 2.8 0.9 4.4 4.6 4.4 1 0 1.8-0.1 2.6-0.2l-0.2-2.7c-0.4 0.1-0.8 0.2-1.3 0.2-1.2 0-1.6-0.8-1.6-2.2v-4.4h2.9v-2.9h-2.9v-4.1l-4.1 1.4v2.7h-2.4v2.9z"/>
	<g>
		<path class="s0" d="m6.6 16.2c0 1.9 1.9 3.3 3.8 3.3 2.7 0 4.5-2.3 5.9-4.3v-1.7c-0.9-0.7-3-1.3-4.4-1.3-2.9 0-5.4 1.2-5.3 4z"/>
		<path class="s0" d="m18.5 0.6c-9.9 0-17.9 6.9-17.9 15.4 0 8.5 8 15.4 17.9 15.4 9.8 0 17.8-6.9 17.8-15.4 0-8.5-8-15.4-17.8-15.4zm7.3 23.4c-2.3 0-4.1-1.5-5.3-3.4v6.1l-4.2 1.4v-5.8c-1.2 1-2.5 1.7-4.4 1.7-4.6 0-6.8-4.5-6.8-8.2 0-3.7 1.8-7.8 6.3-7.8 1.9 0 3.8 1.2 4.9 2.4v-4.8l4.2-1.4v5.8c1.2-1.2 2.7-2 4.7-2 3.9 0 6 3.1 6.6 6.3h-1.7c-0.7-1-2.1-1.6-3.4-1.6-2.9 0-4.7 2.6-6.2 4.7v0.9c1.5 0.8 3 1.6 4.7 1.7 2.2 0 4.2-0.8 5-2.4h1.7c-0.4 3.2-2.2 6.4-6.1 6.4z"/>
	</g>
	<path class="s0" d="m138.6 21.8c-0.5 0.4-2.1 1.1-3.5 1.1-1.9 0-3.6-1.5-3.6-3.7h7.9c0-3.6-1.2-6.3-4.9-6.3-3.1 0-5.2 2.3-5.2 5.6 0 3.7 1.8 6.1 5.8 6.1 1.8 0 2.7-0.5 3.5-0.8v-2zm-7.1-4.1c0.1-1.5 1-3.1 3-3.1 1.7 0 2.7 1.4 2.7 3.1zm-8.6 6.6h2.1v-9.5h2.9v-1.7h-2.9v-1.2c0-1.5 0.2-2.6 2-2.6 0.3 0 0.7 0 0.9 0.1l0.1-1.6c-0.4-0.1-0.8-0.2-1.3-0.2-3.1 0-3.8 1.8-3.8 4.5v1.1h-2.6v1.6h2.6v9.5zm-4.9-15.9h-2.4v2.3h2.4zm-2.2 15.9h2v-11.1h-2zm-6.1 0h2v-16.4h-2z"/>
</svg>